<svg width="357" height="149" viewBox="0 0 357 149" fill="none" xmlns="http://www.w3.org/2000/svg">
<g clip-path="url(#clip0)">
<rect x="47.0405" y="4.72144" width="263.249" height="77.7286" fill="#FEE474"/>
<path d="M98.6663 85.2447L47.0405 82.4501H122.559H221.544H310.289L239.625 84.0818L221.544 82.4501L181.012 85.2447L122.559 82.4501L98.6663 85.2447Z" fill="#FEE474"/>
<path d="M47.0405 4.72147L82.1686 2.6007H114.757L158.773 4.72147L199.862 1.59243L249.803 0.457397L279.394 4.72147H158.773H47.0405Z" fill="#FEE474"/>
<path d="M333.063 7.39073L323.223 4.72144H310.289V82.4501H326.575L332.509 80.1537L319.665 78.4916L332.509 75.2784L320.483 71.106L338.089 68.9041L341.137 66.6289C317.509 62.002 316.042 61.7492 316.042 61.7492L344.448 55.3406L316.232 52.6259L333.129 48.484L319.665 44.8387L338.81 41.4853L323.223 38.1432C336.378 35.7913 356.602 30.4784 356.602 30.4784L327.866 26.6312C327.866 26.6312 347.433 21.0609 349.423 21.0609C351.413 21.0609 314.269 19.3463 314.269 19.3463C314.269 19.3463 327.977 14.8717 338.81 11.7771C333.283 11.9009 318.58 11.7771 318.58 11.7771L333.063 7.39073Z" fill="#FEE474"/>
<path d="M24.2667 79.7808L34.1064 82.4501L47.0405 82.4501L47.0405 4.72151L30.7545 4.72151L24.8204 7.01784L37.6644 8.67995L24.8204 11.8932L36.8463 16.0655L19.2403 18.2675L16.1924 20.5427C39.8201 25.1696 41.2876 25.4224 41.2876 25.4224L12.8812 31.831L41.0976 34.5457L24.2002 38.6876L37.6644 42.3328L18.5192 45.6862L34.1064 49.0284C20.9512 51.3803 0.727248 56.6932 0.727248 56.6932L29.4634 60.5403C29.4634 60.5403 9.89644 66.1106 7.90658 66.1106C5.91672 66.1106 43.0608 67.8253 43.0608 67.8253C43.0608 67.8253 29.3529 72.2998 18.5192 75.3944C24.0466 75.2707 38.7494 75.3944 38.7494 75.3944L24.2667 79.7808Z" fill="#FEE474"/>
</g>
<path d="M107.189 26.7573C107.134 24.6866 107.189 22.5341 107.353 20.2999C107.517 18.0657 107.463 15.8859 107.189 13.7607C100.889 13.7062 94.726 13.6245 88.7 13.5155C82.674 13.352 76.8398 13.5427 71.1973 14.0876C71.3068 14.1966 71.3616 14.3056 71.3616 14.4146V14.4963C71.6355 15.3682 71.7725 16.3491 71.7725 17.439C71.8273 18.4744 71.8546 19.5097 71.8546 20.5451C71.8546 21.5805 71.882 22.5613 71.9368 23.4877C71.9916 24.4141 72.1833 25.1498 72.512 25.6947C73.4981 25.6947 74.8402 25.7492 76.5385 25.8582C78.2915 25.9127 80.1267 25.9944 82.044 26.1034C83.9614 26.1579 85.824 26.2396 87.6318 26.3486C89.4943 26.4576 91.0556 26.5938 92.3156 26.7573C90.7269 28.9915 89.0013 31.362 87.1387 33.8687C85.3309 36.3754 83.4957 38.9366 81.6332 41.5522C79.8254 44.1679 78.0998 46.8108 76.4563 49.481C74.8129 52.1512 73.3885 54.8213 72.1833 57.4915C72.2929 58.6359 72.3203 59.7802 72.2655 60.9246C72.2655 62.0144 72.2655 63.1315 72.2655 64.2759C72.2655 65.3658 72.2929 66.4556 72.3477 67.5455C72.4025 68.5809 72.5942 69.589 72.9229 70.5699C78.7845 70.2429 84.5366 70.1067 90.1791 70.1612C95.8764 70.2157 101.327 70.3791 106.531 70.6516V70.4881C106.696 68.5264 106.833 66.3739 106.942 64.0307C107.052 61.6875 106.97 59.4805 106.696 57.4098V57.1645C104.34 57.2735 102.341 57.3553 100.697 57.4098C99.1085 57.4098 97.5746 57.437 96.0955 57.4915C94.6712 57.4915 93.1647 57.546 91.576 57.655C90.0421 57.764 88.1796 57.9547 85.9883 58.2272L86.0705 58.1454C89.5217 52.8596 93.1099 47.6555 96.8351 42.5331C100.56 37.4107 104.011 32.1794 107.189 26.8391V26.7573Z" fill="black"/>
<path d="M144.958 22.0982C144.301 20.1909 143.178 18.5288 141.589 17.112C140 15.9132 138.192 15.014 136.165 14.4146C134.193 13.7607 132.139 13.3792 130.003 13.2702C127.921 13.1613 125.812 13.3247 123.675 13.7607C121.594 14.1421 119.649 14.7688 117.841 15.6407C117.129 16.0767 116.499 16.5671 115.951 17.112C114.253 19.0193 113.102 21.2263 112.5 23.7329C111.952 26.1851 111.651 28.6373 111.596 31.0895C111.322 35.3945 111.267 39.6995 111.432 44.0044C111.651 48.2549 111.842 52.5054 112.007 56.7558C112.062 58.3361 112.199 59.9164 112.418 61.4967C112.692 63.0226 113.212 64.4666 113.979 65.829C114.472 66.9188 115.102 67.818 115.869 68.5264C116.636 69.1803 117.485 69.7252 118.416 70.1612C119.402 70.5971 120.416 70.8968 121.457 71.0603C122.552 71.2783 123.675 71.4418 124.826 71.5508C126.414 71.6597 127.976 71.6597 129.51 71.5508C131.098 71.4418 132.659 71.1693 134.193 70.7333C135.892 70.2974 137.48 69.698 138.959 68.9351C140.493 68.1177 141.726 67.0551 142.657 65.7472C143.643 64.1669 144.383 62.4231 144.876 60.5159C145.369 58.5541 145.67 56.6196 145.78 54.7123L146.026 52.0149C146.245 49.1813 146.327 46.4021 146.273 43.6775C146.218 40.9528 146.273 38.1464 146.437 35.2583C146.492 33.8959 146.492 32.5609 146.437 31.253C146.437 29.8907 146.382 28.5284 146.273 27.166C146.163 26.2941 145.999 25.4495 145.78 24.6321C145.615 23.7602 145.341 22.9156 144.958 22.0982ZM136.165 45.9662C136.165 46.0752 136.138 46.5384 136.083 47.3558C136.083 48.1732 136.056 49.1268 136.001 50.2167C135.892 51.361 135.837 52.2874 135.837 52.9958C135.892 53.6497 135.892 54.2219 135.837 54.7123C135.782 55.2028 135.645 55.666 135.426 56.1019C135.207 56.4834 134.851 57.0011 134.358 57.655C133.536 58.5814 132.523 59.2625 131.317 59.6985C130.112 60.0799 128.907 60.2434 127.702 60.1889C126.497 60.0799 125.374 59.7257 124.333 59.1263C123.292 58.5269 122.497 57.6822 121.95 56.5924C121.402 54.7941 121.073 52.9141 120.964 50.9523C120.854 48.9361 120.662 46.9743 120.388 45.067C120.279 42.7783 120.251 40.4896 120.306 38.2009C120.416 35.9122 120.69 33.7325 121.128 31.6617C121.785 29.373 123.073 27.493 124.99 26.0217C125.867 25.3677 126.88 24.9045 128.03 24.6321C129.181 24.3596 130.304 24.4414 131.399 24.8773C132.659 25.4767 133.646 26.4031 134.358 27.6565C135.125 28.9098 135.563 30.2994 135.672 31.8252C135.727 32.7516 135.782 33.7597 135.837 34.8496C135.946 35.8849 136.001 36.4299 136.001 36.4844L136.165 42.0427V45.9662Z" fill="black"/>
<path d="M186.488 44.4949C186.762 39.2635 186.789 34.1139 186.57 29.046C186.351 23.9237 186.351 18.7468 186.57 13.5155C185.693 13.5155 184.625 13.5427 183.365 13.5972C182.16 13.5972 180.955 13.6245 179.75 13.6789C178.599 13.7334 177.504 13.7879 176.463 13.8424C175.477 13.8969 174.792 13.8969 174.408 13.8424C173.915 14.4963 173.395 15.5317 172.847 16.9485C172.354 18.3654 171.888 19.8094 171.45 21.2808C171.067 22.6976 170.683 23.9509 170.3 25.0408C169.971 26.1307 169.725 26.6483 169.56 26.5938C169.396 26.5938 169.232 26.5121 169.067 26.3486C168.629 25.6947 168.191 24.7956 167.752 23.6512C167.369 22.5069 166.958 21.308 166.52 20.0547C166.082 18.8013 165.616 17.6297 165.123 16.5398C164.63 15.3955 164.137 14.5508 163.644 14.0059H163.562C162.63 14.0604 161.672 14.0876 160.686 14.0876C159.7 14.0332 158.713 14.0059 157.727 14.0059C156.741 13.9514 155.783 13.9514 154.851 14.0059C153.92 14.0604 153.098 14.1966 152.386 14.4146C152.331 21.8257 152.277 28.3104 152.222 33.8687C152.222 39.427 152.194 44.2224 152.14 48.2549C152.14 52.2874 152.14 55.666 152.14 58.3906C152.14 61.1153 152.14 63.3223 152.14 65.0116C152.194 66.6464 152.249 67.8725 152.304 68.6899C152.359 69.5073 152.414 70.0249 152.468 70.2429C152.523 70.4064 152.605 70.4881 152.715 70.4881C154.468 70.4881 156.385 70.5154 158.467 70.5699C160.549 70.6244 162.466 70.5154 164.219 70.2429C163.89 65.175 163.644 60.0254 163.479 54.7941C163.37 49.5627 163.534 44.3859 163.973 39.2635C163.973 39.2635 164.055 39.536 164.219 40.0809C164.438 40.6258 164.685 41.307 164.959 42.1244C165.232 42.9418 165.561 43.8409 165.945 44.8218C166.328 45.8027 166.684 46.7291 167.013 47.601C167.396 48.4729 167.752 49.2085 168.081 49.808C168.465 50.3529 168.793 50.6254 169.067 50.6254C169.286 50.6254 169.615 50.1077 170.053 49.0723C170.492 48.0369 170.957 46.8381 171.45 45.4757C171.943 44.1134 172.436 42.8056 172.929 41.5522C173.422 40.2444 173.861 39.2908 174.244 38.6913C174.518 40.9801 174.71 43.4867 174.819 46.2114C174.984 48.9361 175.066 51.7152 175.066 54.5489C175.121 57.3825 175.148 60.1617 175.148 62.8863C175.203 65.611 175.285 68.1449 175.394 70.4881C176.052 70.4881 176.819 70.4881 177.695 70.4881C178.627 70.4336 179.585 70.4064 180.571 70.4064C181.557 70.4064 182.543 70.4064 183.53 70.4064C184.516 70.4064 185.42 70.4609 186.241 70.5699L186.488 44.4949Z" fill="black"/>
<path d="M222.395 43.4322C222.121 43.1053 221.93 42.8328 221.82 42.6148C221.71 42.3969 221.765 42.0972 221.984 41.7157C223.08 39.8629 224.011 37.8467 224.778 35.667C225.6 33.4872 226.011 31.253 226.011 28.9643C226.011 25.9127 225.518 23.3515 224.532 21.2808C223.546 19.1555 222.203 17.439 220.505 16.1311C218.807 14.7688 216.835 13.7879 214.589 13.1885C212.398 12.5891 210.097 12.2349 207.686 12.1259C205.276 12.0169 202.838 12.1259 200.373 12.4529C197.908 12.7798 195.58 13.243 193.388 13.8424L193.306 13.9242C193.471 23.406 193.471 32.8061 193.306 42.1244C193.142 51.3883 193.224 60.7338 193.553 70.1612C193.827 70.2702 194.1 70.3247 194.374 70.3247C194.703 70.3247 195.032 70.3247 195.36 70.3247C197.333 70.3791 199.442 70.4881 201.688 70.6516C203.989 70.8151 206.262 70.8696 208.508 70.8151C210.809 70.8151 213.028 70.6789 215.164 70.4064C217.301 70.0794 219.245 69.48 220.998 68.6081C222.751 67.7362 224.23 66.5101 225.436 64.9298C226.696 63.295 227.545 61.197 227.983 58.6359C228.312 56.8921 228.366 55.3118 228.147 53.8949C227.928 52.4781 227.517 51.1975 226.915 50.0532C226.367 48.8543 225.682 47.7372 224.86 46.7018C224.093 45.612 223.272 44.5221 222.395 43.4322ZM214.671 57.0011C214.123 57.655 213.466 58.1454 212.699 58.4724C211.987 58.7448 211.192 58.9356 210.316 59.0446C209.494 59.099 208.645 59.1263 207.769 59.1263C206.947 59.0718 206.152 59.0446 205.386 59.0446L205.221 58.9628C204.783 58.3089 204.482 57.4915 204.317 56.5106C204.153 55.5297 204.071 54.5216 204.071 53.4862C204.126 52.3964 204.235 51.3338 204.399 50.2984C204.564 49.263 204.756 48.3366 204.975 47.5192C206.015 47.6282 207.084 47.71 208.179 47.7645C209.275 47.7645 210.343 47.9007 211.384 48.1732C212.096 48.3366 212.781 48.6908 213.438 49.2358C214.096 49.7262 214.589 50.2984 214.918 50.9523C215.301 51.8787 215.493 52.9141 215.493 54.0584C215.548 55.2028 215.274 56.1837 214.671 57.0011ZM214.589 33.7052C214.151 34.5226 213.548 35.1493 212.781 35.5852C212.069 35.9667 211.275 36.2119 210.398 36.3209C209.522 36.4299 208.618 36.4571 207.686 36.4026C206.755 36.3481 205.879 36.2664 205.057 36.1574C204.564 34.2501 204.399 32.3974 204.564 30.5991C204.783 28.8008 204.838 27.275 204.728 26.0217C205.55 25.5857 206.563 25.395 207.769 25.4495C209.028 25.4495 210.206 25.5585 211.302 25.7764C212.178 25.9944 212.945 26.3486 213.603 26.8391C214.315 27.275 214.89 27.9289 215.328 28.8008C215.767 29.6727 215.849 30.5446 215.575 31.4165C215.301 32.2884 214.972 33.0513 214.589 33.7052Z" fill="black"/>
<path d="M245.368 13.025C242.902 13.0795 241.012 13.0795 239.698 13.025C238.438 12.916 237.315 12.8343 236.329 12.7798C235.945 12.7798 235.342 12.7526 234.521 12.6981C233.754 12.5891 233.233 12.5618 232.96 12.6163V12.7798C232.466 17.3572 232.22 22.0437 232.22 26.8391C232.275 31.58 232.357 36.4026 232.466 41.307C232.631 46.1569 232.74 51.0613 232.795 56.0202C232.85 60.9791 232.686 65.9107 232.302 70.8151C232.85 70.6516 233.863 70.5971 235.342 70.6516C236.822 70.7606 238.355 70.8423 239.944 70.8968C241.588 70.9513 243.094 70.9241 244.464 70.8151C245.888 70.7606 246.819 70.5154 247.257 70.0794C246.984 65.4475 246.819 60.7611 246.764 56.0202C246.71 51.2793 246.71 46.5384 246.764 41.7975C246.874 37.002 246.984 32.2339 247.093 27.493C247.258 22.7521 247.34 18.0384 247.34 13.352V13.025H245.368Z" fill="black"/>
<path d="M288.489 59.3715C284.764 59.4805 281.148 59.4533 277.642 59.2898C274.136 59.0718 270.575 58.9628 266.96 58.9628L266.877 58.8811C266.768 57.5732 266.658 55.9384 266.549 53.9767C266.494 52.0149 266.604 50.2439 266.877 48.6636C267.151 48.4456 267.672 48.3094 268.439 48.2549C269.206 48.2004 270.055 48.1732 270.986 48.1732C271.972 48.1732 272.986 48.1732 274.026 48.1732C275.067 48.1187 275.999 47.9824 276.82 47.7645C276.766 45.7482 276.793 43.8137 276.903 41.9609C277.012 40.1082 276.93 38.2554 276.656 36.4026V36.3209C274.958 36.2664 273.26 36.2391 271.561 36.2391C269.863 36.2391 268.192 36.1846 266.549 36.0757L266.467 35.9939C266.083 34.5226 265.974 32.9695 266.138 31.3348C266.357 29.6455 266.439 28.0107 266.384 26.4304L266.467 26.3486H266.713C268.521 26.1851 270.329 26.1034 272.136 26.1034C273.944 26.1034 275.752 26.1306 277.56 26.1851C279.368 26.1851 281.148 26.1579 282.901 26.1034C284.709 25.9944 286.489 25.7492 288.242 25.3677V25.286C288.242 23.3787 288.297 21.4442 288.407 19.4825C288.571 17.5207 288.516 15.5862 288.242 13.6789C288.242 13.6245 287.694 13.57 286.599 13.5155C285.503 13.461 284.051 13.4337 282.244 13.4337C280.436 13.4337 278.354 13.461 275.999 13.5155C273.643 13.57 271.205 13.6245 268.685 13.6789C266.165 13.7334 263.645 13.8152 261.125 13.9242C258.66 13.9787 256.359 14.0604 254.223 14.1694C253.949 18.8558 253.785 23.515 253.73 28.1469C253.675 32.7788 253.675 37.4107 253.73 42.0427C253.785 46.6746 253.867 51.3338 253.976 56.0202C254.086 60.6521 254.141 65.3385 254.141 70.0794C259.455 70.5154 264.987 70.6516 270.74 70.4881C276.546 70.2702 282.244 70.1884 287.831 70.2429C288.27 68.6081 288.516 66.8643 288.571 65.0116C288.626 63.1043 288.598 61.2788 288.489 59.535V59.3715Z" fill="black"/>
<path d="M53.1175 93.5641C51.3827 93.4064 49.6217 93.3275 47.8344 93.3275C46.8881 93.3275 45.9419 93.3538 44.9957 93.4064C44.0494 93.4589 43.1295 93.5904 42.2358 93.8006V93.8795C42.0256 96.1925 41.8679 98.8209 41.7627 101.765C41.7102 104.656 41.6313 107.626 41.5262 110.675C41.4736 113.724 41.3948 116.72 41.2896 119.664C41.1845 122.555 41.0268 125.131 40.8165 127.392C40.5011 126.603 40.1331 125.394 39.7126 123.764C39.3446 122.135 38.9503 120.479 38.5298 118.797C38.1618 117.115 37.7676 115.616 37.347 114.302C36.979 112.935 36.6899 112.173 36.4796 112.016C36.4271 112.068 36.4008 112.121 36.4008 112.173C36.4008 112.226 36.3745 112.305 36.3219 112.41C35.7437 114.775 35.1654 117.115 34.5872 119.428C34.0615 121.688 33.457 124.001 32.7736 126.367C32.1953 124.106 31.8273 121.557 31.6696 118.718C31.5119 115.879 31.4331 112.988 31.4331 110.044C31.4331 107.1 31.4331 104.183 31.4331 101.292C31.4331 98.4003 31.3279 95.7982 31.1177 93.4852C30.1714 93.4326 29.1727 93.3801 28.1213 93.3275C27.0699 93.2749 26.0186 93.2487 24.9672 93.2487C24.0735 93.2487 23.1799 93.3012 22.2862 93.4064C21.4451 93.4589 20.6303 93.5378 19.8418 93.6429V93.7218C19.9995 102.816 20.6829 111.91 21.892 121.005C23.101 130.099 24.3364 139.141 25.598 148.13H25.6769C26.8334 148.288 27.8322 148.366 28.6733 148.366C29.4092 148.366 30.0663 148.34 30.6446 148.288C31.2228 148.182 31.8536 148.077 32.537 147.972C32.9576 147.289 33.3255 146.316 33.6409 145.055C33.9564 143.793 34.2718 142.505 34.5872 141.191C34.9026 139.824 35.218 138.562 35.5334 137.406C35.9014 136.197 36.3219 135.356 36.795 134.883H36.8739C37.347 135.619 37.7676 136.617 38.1355 137.879C38.5035 139.141 38.8715 140.455 39.2395 141.822C39.6074 143.136 39.9491 144.398 40.2645 145.607C40.6325 146.763 41.0531 147.657 41.5262 148.288H45.3111C45.8368 148.288 46.3099 148.288 46.7304 148.288C47.2035 148.288 47.6241 148.235 47.9921 148.13C48.728 138.983 49.5691 129.889 50.5153 120.847C51.5141 111.805 52.4078 102.737 53.1963 93.6429L53.1175 93.5641Z" fill="#FEE474"/>
<path d="M81.6866 120.847C81.4764 119.953 81.1872 118.744 80.8193 117.22C80.4513 115.695 80.057 114.013 79.6365 112.173C79.2159 110.333 78.7691 108.415 78.296 106.417C77.8754 104.419 77.4549 102.553 77.0343 100.818C76.6664 99.0312 76.2984 97.4541 75.9304 96.0873C75.615 94.668 75.3784 93.6166 75.2207 92.9333C73.486 93.091 72.0667 93.1961 70.9627 93.2487C69.9114 93.2487 69.044 93.2487 68.3606 93.2487C67.6772 93.2487 67.1252 93.2487 66.7047 93.2487C66.2842 93.2487 65.8899 93.2749 65.5219 93.3275C64.2603 97.533 63.1038 101.765 62.0524 106.023C61.001 110.281 60.0285 114.381 59.1349 118.324C58.2412 122.266 57.4527 125.999 56.7693 129.521C56.1385 132.99 55.5865 136.065 55.1134 138.746C54.6403 141.427 54.2723 143.609 54.0095 145.291C53.7466 146.973 53.5626 147.998 53.4575 148.366C53.5101 148.419 53.5627 148.445 53.6152 148.445C57.1899 148.393 59.8183 148.419 61.5004 148.524C63.1826 148.629 64.234 148.629 64.6545 148.524C64.7071 148.524 64.7334 148.524 64.7334 148.524C64.786 148.472 64.8385 148.445 64.8911 148.445C65.3642 147.552 65.7322 146.527 65.995 145.37C66.2579 144.214 66.4944 143.031 66.7047 141.822C66.9675 140.56 67.2041 139.377 67.4144 138.273C67.6772 137.117 67.9926 136.118 68.3606 135.277C68.9388 135.277 69.3857 135.277 69.7011 135.277C70.0691 135.224 70.3845 135.198 70.6473 135.198C70.9627 135.198 71.3044 135.198 71.6724 135.198C72.0404 135.198 72.5661 135.251 73.2494 135.356C73.6174 136.144 73.9591 137.091 74.2745 138.194C74.5899 139.298 74.8791 140.455 75.1419 141.664C75.4573 142.873 75.7464 144.056 76.0093 145.212C76.3247 146.369 76.6401 147.368 76.9555 148.209H77.0343C78.7165 148.577 80.5038 148.787 82.3963 148.84C84.2888 148.945 86.0235 148.84 87.6006 148.524V148.445L81.6866 120.847ZM73.6437 125.972C72.6449 125.972 71.6461 125.999 70.6473 126.051C69.6485 126.051 68.7023 126.025 67.8086 125.972C68.1766 123.291 68.492 120.794 68.7549 118.481C69.0703 116.168 69.3331 114.25 69.5434 112.725C69.8062 111.201 70.0691 110.202 70.3319 109.729C70.6473 109.203 70.9364 109.387 71.1993 110.281C71.5147 111.174 71.8564 112.883 72.2244 115.406C72.6449 117.929 73.118 121.451 73.6437 125.972Z" fill="#FEE474"/>
<path d="M123.225 111.148C123.96 107.206 123.645 103.946 122.278 101.37C120.912 98.7946 118.967 96.8496 116.443 95.5354C115.182 94.9571 113.789 94.484 112.264 94.116C110.792 93.7481 109.268 93.5378 107.691 93.4852C106.166 93.3801 104.642 93.4326 103.117 93.6429C101.593 93.8006 100.2 94.1423 98.938 94.668C96.4148 95.7194 94.2595 97.3227 92.4721 99.478C90.7374 101.633 89.5546 104.025 88.9238 106.654C88.293 109.282 88.3193 111.989 89.0026 114.775C89.7386 117.561 91.3156 120.111 93.7338 122.424C94.4697 123.055 95.2845 123.607 96.1782 124.08C97.0719 124.553 98.0444 124.895 99.0957 125.105C100.2 125.315 101.382 125.552 102.644 125.815C103.906 126.025 105.062 126.367 106.114 126.84C107.218 127.313 108.164 127.944 108.952 128.732C109.741 129.468 110.214 130.467 110.372 131.729C110.687 133.568 110.319 134.935 109.268 135.829C108.269 136.723 107.06 137.196 105.64 137.248C104.274 137.248 102.959 136.828 101.698 135.987C100.489 135.146 99.8317 133.884 99.7266 132.202C97.9392 132.254 95.9416 132.228 93.7338 132.123C91.5259 131.965 89.502 132.018 87.6622 132.281V132.754C87.5045 135.277 87.9513 137.537 89.0026 139.535C90.054 141.48 91.4733 143.136 93.2607 144.503C95.048 145.869 97.0719 146.947 99.3323 147.736C101.645 148.472 103.958 148.866 106.271 148.918C107.901 148.971 109.478 148.84 111.002 148.524C112.579 148.156 114.025 147.604 115.339 146.868C116.706 146.132 117.915 145.186 118.967 144.03C120.018 142.873 120.859 141.48 121.49 139.85C122.121 138.484 122.567 137.064 122.83 135.592C123.146 134.068 123.251 132.57 123.146 131.098C123.093 129.626 122.83 128.207 122.357 126.84C121.884 125.42 121.174 124.106 120.228 122.897C118.704 120.637 116.732 118.771 114.314 117.299C111.949 115.827 109.373 114.933 106.587 114.618C105.483 114.46 104.458 114.171 103.511 113.75C102.565 113.33 101.882 112.489 101.461 111.227C101.409 110.859 101.356 110.517 101.304 110.202C101.304 109.834 101.356 109.466 101.461 109.098C101.672 107.626 102.355 106.627 103.511 106.102C104.721 105.576 105.956 105.444 107.218 105.707C108.479 105.97 109.557 106.575 110.45 107.521C111.344 108.467 111.633 109.65 111.318 111.069C113.158 111.595 115.129 111.832 117.232 111.779C119.334 111.674 121.306 111.464 123.146 111.148H123.225Z" fill="#FEE474"/>
<path d="M159.051 93.7218C153.637 93.1435 148.064 92.8807 142.335 92.9333C136.657 92.9333 131.137 92.9595 125.776 93.0121C125.776 93.0647 125.776 93.091 125.776 93.091C125.828 93.091 125.854 93.1172 125.854 93.1698C125.749 94.4314 125.697 95.7456 125.697 97.1124C125.697 98.4792 125.697 99.7671 125.697 100.976C125.749 102.133 125.802 103.131 125.854 103.973C125.96 104.814 126.065 105.339 126.17 105.55C126.485 105.655 127.037 105.707 127.826 105.707C128.614 105.707 129.482 105.734 130.428 105.786C131.374 105.786 132.32 105.839 133.266 105.944C134.213 105.996 135.001 106.18 135.632 106.496L135.711 106.575C136.026 113.934 136.21 120.216 136.263 125.42C136.368 130.625 136.394 134.909 136.342 138.273C136.342 141.585 136.315 144.082 136.263 145.764C136.21 147.446 136.21 148.393 136.263 148.603C137.209 148.445 138.234 148.366 139.338 148.366C140.442 148.366 141.546 148.366 142.65 148.366C143.806 148.366 144.937 148.366 146.041 148.366C147.197 148.314 148.248 148.209 149.195 148.051V147.893C149.09 142.163 149.011 137.196 148.958 132.99C148.906 128.732 148.853 125.105 148.8 122.109C148.748 119.06 148.695 116.589 148.643 114.696C148.643 112.751 148.643 111.201 148.643 110.044C148.643 108.835 148.643 107.968 148.643 107.442C148.695 106.864 148.748 106.443 148.8 106.18C148.8 106.128 148.8 106.102 148.8 106.102C148.853 106.049 148.879 105.996 148.879 105.944H149.116C151.587 105.839 153.558 105.76 155.03 105.707C156.502 105.655 157.737 105.734 158.736 105.944C158.999 104.051 159.13 101.975 159.13 99.7145C159.183 97.4541 159.156 95.4565 159.051 93.7218Z" fill="#FEE474"/>
<path d="M196.456 137.8C192.881 137.905 189.411 137.879 186.047 137.721C182.683 137.511 179.266 137.406 175.796 137.406L175.717 137.327C175.612 136.065 175.507 134.488 175.402 132.596C175.349 130.703 175.455 128.995 175.717 127.471C175.98 127.26 176.48 127.129 177.216 127.076C177.952 127.024 178.766 126.997 179.66 126.997C180.606 126.997 181.579 126.997 182.578 126.997C183.576 126.945 184.47 126.813 185.258 126.603C185.206 124.658 185.232 122.792 185.337 121.005C185.442 119.217 185.364 117.43 185.101 115.643V115.564C183.471 115.511 181.842 115.485 180.212 115.485C178.582 115.485 176.979 115.432 175.402 115.327L175.323 115.248C174.955 113.829 174.85 112.331 175.008 110.754C175.218 109.124 175.297 107.547 175.244 106.023L175.323 105.944H175.56C177.294 105.786 179.029 105.707 180.764 105.707C182.499 105.707 184.233 105.734 185.968 105.786C187.703 105.786 189.411 105.76 191.094 105.707C192.828 105.602 194.537 105.366 196.219 104.998V104.919C196.219 103.079 196.272 101.213 196.377 99.3203C196.534 97.4278 196.482 95.5617 196.219 93.7218C196.219 93.6692 195.693 93.6166 194.642 93.5641C193.591 93.5115 192.198 93.4852 190.463 93.4852C188.728 93.4852 186.73 93.5115 184.47 93.5641C182.21 93.6166 179.87 93.6692 177.452 93.7218C175.034 93.7743 172.616 93.8532 170.198 93.9583C167.832 94.0109 165.624 94.0898 163.574 94.1949C163.311 98.7158 163.154 103.21 163.101 107.679C163.048 112.147 163.048 116.615 163.101 121.084C163.154 125.552 163.232 130.046 163.338 134.567C163.443 139.036 163.495 143.556 163.495 148.13C168.594 148.55 173.904 148.682 179.423 148.524C184.996 148.314 190.463 148.235 195.825 148.288C196.245 146.711 196.482 145.028 196.534 143.241C196.587 141.401 196.561 139.64 196.456 137.958V137.8Z" fill="#FEE474"/>
<path d="M233.945 141.349C233.893 140.928 233.867 140.455 233.867 139.929C233.919 139.351 233.972 138.799 234.024 138.273C234.077 137.695 234.103 137.117 234.103 136.539C233.683 136.591 232.92 136.617 231.816 136.617C230.765 136.565 229.53 136.512 228.11 136.46C226.744 136.407 225.272 136.355 223.695 136.302C222.17 136.197 220.725 136.118 219.358 136.065C217.991 136.013 216.782 135.987 215.731 135.987C214.732 135.934 214.048 135.96 213.68 136.065V135.987C213.733 132.622 213.733 129.153 213.68 125.578C213.68 121.951 213.654 118.324 213.602 114.696C213.549 111.069 213.496 107.468 213.444 103.894C213.444 100.267 213.496 96.7444 213.602 93.3275C212.866 93.0121 211.893 92.7755 210.684 92.6178C209.475 92.4601 208.24 92.3813 206.978 92.3813C205.716 92.3813 204.534 92.4601 203.43 92.6178C202.326 92.723 201.511 92.8807 200.985 93.091C201.038 96.7707 201.09 100.135 201.143 103.184C201.195 106.18 201.248 109.019 201.301 111.7C201.353 114.381 201.379 117.009 201.379 119.585C201.379 122.161 201.353 124.842 201.301 127.628C201.301 130.362 201.248 133.332 201.143 136.539C201.038 139.693 200.906 143.241 200.749 147.184V148.603C207.109 148.708 212.182 148.761 215.967 148.761C219.805 148.761 222.801 148.734 224.956 148.682C227.164 148.629 228.715 148.577 229.609 148.524C230.555 148.472 231.317 148.472 231.895 148.524C232.474 148.524 232.92 148.524 233.236 148.524C233.551 148.472 233.761 148.235 233.867 147.814C234.024 147.341 234.103 146.632 234.103 145.685C234.103 144.687 234.051 143.241 233.945 141.349Z" fill="#FEE474"/>
<path d="M262.8 120.847C262.59 119.953 262.301 118.744 261.933 117.22C261.565 115.695 261.171 114.013 260.75 112.173C260.33 110.333 259.883 108.415 259.41 106.417C258.989 104.419 258.569 102.553 258.148 100.818C257.78 99.0312 257.412 97.4541 257.044 96.0873C256.729 94.668 256.492 93.6166 256.335 92.9333C254.6 93.091 253.181 93.1961 252.077 93.2487C251.025 93.2487 250.158 93.2487 249.474 93.2487C248.791 93.2487 248.239 93.2487 247.819 93.2487C247.398 93.2487 247.004 93.2749 246.636 93.3275C245.374 97.533 244.218 101.765 243.166 106.023C242.115 110.281 241.142 114.381 240.249 118.324C239.355 122.266 238.567 125.999 237.883 129.521C237.252 132.99 236.7 136.065 236.227 138.746C235.754 141.427 235.386 143.609 235.123 145.291C234.86 146.973 234.677 147.998 234.571 148.366C234.624 148.419 234.676 148.445 234.729 148.445C238.304 148.393 240.932 148.419 242.614 148.524C244.296 148.629 245.348 148.629 245.768 148.524C245.821 148.524 245.847 148.524 245.847 148.524C245.9 148.472 245.952 148.445 246.005 148.445C246.478 147.552 246.846 146.527 247.109 145.37C247.372 144.214 247.608 143.031 247.819 141.822C248.081 140.56 248.318 139.377 248.528 138.273C248.791 137.117 249.106 136.118 249.474 135.277C250.053 135.277 250.5 135.277 250.815 135.277C251.183 135.224 251.498 135.198 251.761 135.198C252.077 135.198 252.418 135.198 252.786 135.198C253.154 135.198 253.68 135.251 254.363 135.356C254.731 136.144 255.073 137.091 255.388 138.194C255.704 139.298 255.993 140.455 256.256 141.664C256.571 142.873 256.86 144.056 257.123 145.212C257.439 146.369 257.754 147.368 258.069 148.209H258.148C259.83 148.577 261.618 148.787 263.51 148.84C265.403 148.945 267.137 148.84 268.714 148.524V148.445L262.8 120.847ZM254.758 125.972C253.759 125.972 252.76 125.999 251.761 126.051C250.762 126.051 249.816 126.025 248.922 125.972C249.29 123.291 249.606 120.794 249.869 118.481C250.184 116.168 250.447 114.25 250.657 112.725C250.92 111.201 251.183 110.202 251.446 109.729C251.761 109.203 252.05 109.387 252.313 110.281C252.629 111.174 252.97 112.883 253.338 115.406C253.759 117.929 254.232 121.451 254.758 125.972Z" fill="#FEE474"/>
<path d="M301.879 148.918C302.773 148.918 303.404 148.866 303.772 148.761C304.14 148.656 304.376 148.577 304.481 148.524V146.947C304.481 145.896 304.455 144.844 304.402 143.793C304.402 142.742 304.402 141.69 304.402 140.639C304.402 139.167 304.402 137.721 304.402 136.302C304.455 134.883 304.481 133.411 304.481 131.886C304.481 129.626 304.481 127.365 304.481 125.105C304.481 122.845 304.455 120.61 304.402 118.403V93.0121C302.878 92.6967 301.143 92.539 299.198 92.539C297.201 92.539 295.308 92.6967 293.521 93.0121C293.468 94.3263 293.416 95.5617 293.363 96.7182C293.363 97.8221 293.363 98.926 293.363 100.03C293.363 101.922 293.389 103.789 293.442 105.628C293.547 107.416 293.6 109.361 293.6 111.464C293.6 112.357 293.547 113.277 293.442 114.223C293.337 115.17 293.205 115.695 293.048 115.8C292.995 115.8 292.811 115.511 292.496 114.933C292.18 114.302 291.786 113.566 291.313 112.725C290.892 111.832 290.419 110.859 289.894 109.808C289.368 108.704 288.869 107.679 288.395 106.732C287.922 105.734 287.502 104.866 287.134 104.13C286.766 103.394 286.529 102.895 286.424 102.632C285.951 101.528 285.53 100.634 285.162 99.9511C284.847 99.2151 284.532 98.558 284.216 97.9798C283.953 97.4015 283.664 96.797 283.349 96.1662C283.033 95.5354 282.692 94.7469 282.324 93.8006C282.324 93.6955 282.035 93.5904 281.456 93.4852C280.931 93.3801 280.3 93.3012 279.564 93.2487C278.828 93.1435 278.092 93.091 277.356 93.091C276.62 93.0384 276.094 93.0121 275.779 93.0121C275.148 93.0121 274.517 93.0384 273.887 93.091C273.308 93.1435 272.756 93.2224 272.231 93.3275C271.968 96.6919 271.784 100.161 271.679 103.736C271.574 107.258 271.521 110.833 271.521 114.46C271.521 119.401 271.547 124.132 271.6 128.653C271.705 133.174 271.758 137.932 271.758 142.926V148.445C272.967 148.445 274.202 148.524 275.464 148.682C276.778 148.84 278.066 148.918 279.327 148.918C279.906 148.918 280.484 148.892 281.062 148.84C281.64 148.787 282.219 148.682 282.797 148.524C282.744 147.63 282.718 146.632 282.718 145.528C282.718 144.371 282.718 143.188 282.718 141.979C282.718 139.772 282.718 137.485 282.718 135.119C282.771 132.754 282.823 130.598 282.876 128.653C282.928 126.708 282.981 125.105 283.033 123.843C283.139 122.582 283.217 121.951 283.27 121.951C283.375 121.951 283.507 122.214 283.664 122.739C283.875 123.213 284.085 123.738 284.295 124.316L285.084 126.682C286.293 130.046 287.738 133.568 289.421 137.248C291.155 140.875 292.89 144.634 294.625 148.524C295.676 148.524 296.885 148.577 298.252 148.682C299.619 148.84 300.828 148.918 301.879 148.918Z" fill="#FEE474"/>
<path d="M338.707 99.8723C337.761 98.3478 336.499 96.981 334.922 95.7719C333.398 94.5103 331.794 93.6692 330.112 93.2487C328.588 93.3012 327.01 93.3012 325.381 93.2487C323.804 93.1961 322.2 93.1698 320.571 93.1698C318.941 93.1172 317.312 93.1698 315.682 93.3275C314.105 93.4326 312.58 93.6692 311.109 94.0372C311.056 94.0897 311.003 94.1423 310.951 94.1949C310.951 94.2475 310.925 94.3 310.872 94.3526C310.977 98.926 310.977 103.552 310.872 108.231C310.819 112.857 310.793 117.456 310.793 122.03C310.793 126.603 310.872 131.124 311.03 135.592C311.187 140.008 311.555 144.292 312.134 148.445C312.186 148.393 312.213 148.366 312.213 148.366C315.524 148.366 318.941 148.366 322.463 148.366C325.985 148.314 329.481 148.235 332.951 148.13C334.948 145.659 336.841 143.031 338.628 140.245C340.468 137.459 341.914 134.515 342.965 131.413C342.965 131.361 342.965 131.334 342.965 131.334C343.017 131.334 343.044 131.308 343.044 131.255C343.517 128.837 343.78 126.393 343.832 123.922C343.937 121.399 344.043 118.902 344.148 116.431C344.095 115.59 344.016 114.775 343.911 113.987C343.859 113.146 343.701 112.305 343.438 111.464C342.965 109.361 342.334 107.363 341.546 105.471C340.81 103.526 339.863 101.66 338.707 99.8723ZM331.452 128.496C331.137 128.969 330.769 129.442 330.349 129.915C329.981 130.336 329.534 130.703 329.008 131.019C328.745 131.124 328.509 131.255 328.298 131.413C328.088 131.518 327.852 131.545 327.589 131.492C326.642 131.597 325.644 131.676 324.592 131.729C323.594 131.781 322.805 131.545 322.227 131.019C322.122 129.232 322.069 127.444 322.069 125.657C322.069 123.817 322.095 122.03 322.148 120.295C322.2 118.508 322.227 116.799 322.227 115.17C322.227 113.54 322.174 112.016 322.069 110.596V110.281H322.306C323.252 110.07 324.251 109.992 325.302 110.044C326.353 110.044 327.326 110.097 328.22 110.202C329.113 110.517 329.849 110.99 330.427 111.621C331.006 112.199 331.479 112.883 331.847 113.671C332.267 114.46 332.583 115.301 332.793 116.195C333.003 117.036 333.187 117.851 333.345 118.639C333.765 120.584 333.765 122.371 333.345 124.001C332.977 125.631 332.346 127.129 331.452 128.496Z" fill="#FEE474"/>
<defs>
<clipPath id="clip0">
<rect width="355.875" height="83.155" fill="white" transform="translate(0.727051 0.457397)"/>
</clipPath>
</defs>
</svg>
